<?xml version="1.0" encoding="UTF-8" standalone="no"?>
<svg
   xmlns:dc="http://purl.org/dc/elements/1.1/"
   xmlns:cc="http://creativecommons.org/ns#"
   xmlns:rdf="http://www.w3.org/1999/02/22-rdf-syntax-ns#"
   xmlns:svg="http://www.w3.org/2000/svg"
   xmlns="http://www.w3.org/2000/svg"
   viewBox="0 0 380.7825 199.42401"
   height="199.42401"
   width="380.7825"
   xml:space="preserve"
   version="1.1"
   id="svg4234"><metadata
     id="metadata4240"><rdf:RDF><cc:Work
         rdf:about=""><dc:format>image/svg+xml</dc:format><dc:type
           rdf:resource="http://purl.org/dc/dcmitype/StillImage" /><dc:title></dc:title></cc:Work></rdf:RDF></metadata><defs
     id="defs4238" /><g
     transform="matrix(1.25,0,0,-1.25,-192.23313,808.32371)"
     id="g4242"><g
       transform="matrix(0,-1,1,0,319.81464,566.88936)"
       id="g4244"><g
         id="g4246"><g
           id="g4248"><g
             id="g4250"><path
               id="path4252"
               style="fill:#808080;fill-opacity:1;fill-rule:nonzero;stroke:none"
               d="m -79.3711,0 0,90.70982 158.7422,0 0,-90.70982 -28.34682,-51.02426 -102.04854,0 L -79.3711,0 Z" /></g><g
             id="g4254"><path
               id="path4256"
               style="fill:none;stroke:#999999;stroke-width:4.25199986;stroke-linecap:round;stroke-linejoin:miter;stroke-miterlimit:10;stroke-dasharray:none;stroke-opacity:1"
               d="M -45.3549,1.41731 C 0,-1.13385 0,-1.13385 45.3549,1.41731" /></g><g
             id="g4258"><path
               id="path4260"
               style="fill:none;stroke:#999999;stroke-width:5.66934013;stroke-linecap:butt;stroke-linejoin:miter;stroke-miterlimit:10;stroke-dasharray:none;stroke-opacity:1"
               d="m 46.77223,90.70982 0,-89.71354 c 0,-0.55025 -0.25149,-1.36512 -0.56172,-1.82012 L 4.25201,-62.36299" /></g><g
             id="g4262"><path
               id="path4264"
               style="fill:#737373;fill-opacity:1;fill-rule:nonzero;stroke:none"
               d="m -56.69363,90.70982 0,5.66935 113.38728,0 0,-5.66935 -113.38728,0 z" /></g><g
             id="g4266"><path
               id="path4268"
               style="fill:#cd5c5c;fill-opacity:1;fill-rule:nonzero;stroke:none"
               d="m -79.3711,96.37918 0,39.68555 C 0,138.89938 0,138.89938 79.3711,136.06473 l 0,-39.68555 -158.7422,0 z" /></g><g
             id="g4270"><path
               id="path4272"
               style="fill:#737373;fill-opacity:1;fill-rule:nonzero;stroke:none"
               d="m -39.68553,-51.02426 0,-51.02428 5.66934,-5.66934 68.03236,0 5.66935,5.66934 0,51.02428" /></g><g
             id="g4274"><path
               id="path4276"
               style="fill:#adadad;fill-opacity:1;fill-rule:nonzero;stroke:none"
               d="m -28.3468,-107.71791 0,-11.33872 m 0,-1e-5 c 0,-1.063 1.41733,-1.59451 1.41733,-2.6575 0,-0.77593 -0.70867,-1.44925 -1.41733,-2.12601 -0.70865,-0.67673 -1.41733,-1.35005 -1.41733,-2.12599 0,-0.77593 0.70866,-1.44925 1.41733,-2.12599 0.70865,-0.67673 1.41733,-1.35007 1.41733,-2.12601 0,-0.77592 -0.70867,-1.44925 -1.41733,-2.12599 -0.70865,-0.67673 -1.41733,-1.35005 -1.41733,-2.12599 0,-0.77593 0.70866,-1.44925 1.41733,-2.126 0.70865,-0.67674 1.41733,-1.35006 1.41733,-2.126 0,-0.77593 -0.70867,-1.44925 -1.41733,-2.12599 -0.70865,-0.67673 -1.41733,-1.35006 -1.41733,-2.12599 0,-1.06309 1.41733,-1.5946 1.41733,-2.6576 l 0,-1.77176 0,-1.41733 21.2601,-17.00807 14.17339,0 21.2601,17.00807 0,1.41733 m 1e-5,-1e-5 c 0,1.063 -1.41733,1.59451 -1.41733,2.65751 0,0.77591 0.70867,1.44926 1.41733,2.126 0.70865,0.67672 1.41733,1.35005 1.41733,2.12599 0,0.77592 -0.70866,1.44925 -1.41733,2.12599 -0.70865,0.67674 -1.41733,1.35007 -1.41733,2.12601 0,0.77592 0.70867,1.44925 1.41733,2.12599 0.70865,0.67673 1.41733,1.35005 1.41733,2.12599 0,0.77592 -0.70866,1.44925 -1.41733,2.12601 -0.70865,0.67672 -1.41733,1.35005 -1.41733,2.12599 0,0.77592 0.70867,1.44925 1.41733,2.12599 0.70865,0.67674 1.41733,1.35007 1.41733,2.126 0,1.06307 -1.41733,1.59458 -1.41733,2.65759 l 0,1.77175 0,11.33875 -56.69362,0 0,-11.33872 56.69362,-28.34684 z" /></g><g
             id="g4278"><path
               id="path4280"
               style="fill:none;stroke:#adadad;stroke-width:0.3985;stroke-linecap:butt;stroke-linejoin:miter;stroke-miterlimit:10;stroke-dasharray:none;stroke-opacity:1"
               d="m -28.3468,-119.05664 56.6936,-28.34683" /></g><g
             id="g4282"><path
               id="path4284"
               style="fill:none;stroke:#b5b5b5;stroke-width:2.83466005;stroke-linecap:round;stroke-linejoin:miter;stroke-miterlimit:10;stroke-dasharray:none;stroke-opacity:1"
               d="m 12.75604,-107.71791 0,-38.68927 c 0,-0.55023 -0.37909,-1.23323 -0.84672,-1.52552 l -10.49199,-6.55744" /></g><g
             id="g4286"><path
               id="path4288"
               style="fill:none;stroke:#808080;stroke-width:5.10241985;stroke-linecap:butt;stroke-linejoin:miter;stroke-miterlimit:10;stroke-dasharray:none;stroke-opacity:1"
               d="m 14.17339,-51.02426 0,-56.69364" /></g><g
             id="g4290"><path
               id="path4292"
               style="fill:none;stroke:#808080;stroke-width:4.53549004;stroke-linecap:butt;stroke-linejoin:miter;stroke-miterlimit:10;stroke-dasharray:none;stroke-opacity:1"
               d="m 45.3549,90.70982 0,5.66935" /></g><g
             id="g4294"><path
               id="path4296"
               style="fill:none;stroke:#666666;stroke-width:0.3985;stroke-linecap:butt;stroke-linejoin:miter;stroke-miterlimit:10;stroke-dasharray:none;stroke-opacity:1"
               d="m -56.69363,90.70982 0,5.66935" /></g><g
             id="g4298"><path
               id="path4300"
               style="fill:none;stroke:#666666;stroke-width:0.3985;stroke-linecap:butt;stroke-linejoin:miter;stroke-miterlimit:10;stroke-dasharray:none;stroke-opacity:1"
               d="m 56.69363,90.70982 0,5.66935" /></g><g
             id="g4302"><path
               id="path4304"
               style="fill:none;stroke:#8a8a8a;stroke-width:0.3985;stroke-linecap:butt;stroke-linejoin:miter;stroke-miterlimit:10;stroke-dasharray:none;stroke-opacity:1"
               d="m -28.3468,-107.71791 0,-11.33872 m 0,-1e-5 c 0,-1.063 1.41733,-1.59451 1.41733,-2.6575 0,-0.77593 -0.70867,-1.44925 -1.41733,-2.12601 -0.70865,-0.67673 -1.41733,-1.35005 -1.41733,-2.12599 0,-0.77593 0.70866,-1.44925 1.41733,-2.12599 0.70865,-0.67673 1.41733,-1.35007 1.41733,-2.12601 0,-0.77592 -0.70867,-1.44925 -1.41733,-2.12599 -0.70865,-0.67673 -1.41733,-1.35005 -1.41733,-2.12599 0,-0.77593 0.70866,-1.44925 1.41733,-2.126 0.70865,-0.67674 1.41733,-1.35006 1.41733,-2.126 0,-0.77593 -0.70867,-1.44925 -1.41733,-2.12599 -0.70865,-0.67673 -1.41733,-1.35006 -1.41733,-2.12599 0,-1.06309 1.41733,-1.5946 1.41733,-2.6576 l 0,-1.77176 0,-1.41733 21.2601,-17.00807 14.17339,0 21.2601,17.00807 0,1.41733 m 1e-5,-1e-5 c 0,1.063 -1.41733,1.59451 -1.41733,2.65751 0,0.77591 0.70867,1.44926 1.41733,2.126 0.70865,0.67672 1.41733,1.35005 1.41733,2.12599 0,0.77592 -0.70866,1.44925 -1.41733,2.12599 -0.70865,0.67674 -1.41733,1.35007 -1.41733,2.12601 0,0.77592 0.70867,1.44925 1.41733,2.12599 0.70865,0.67673 1.41733,1.35005 1.41733,2.12599 0,0.77592 -0.70866,1.44925 -1.41733,2.12601 -0.70865,0.67672 -1.41733,1.35005 -1.41733,2.12599 0,0.77592 0.70867,1.44925 1.41733,2.12599 0.70865,0.67674 1.41733,1.35007 1.41733,2.126 0,1.06307 -1.41733,1.59458 -1.41733,2.65759 l 0,1.77175 0,11.33875" /></g><g
             id="g4306"><path
               id="path4308"
               style="fill:none;stroke:#ffffff;stroke-width:0.3985;stroke-linecap:butt;stroke-linejoin:miter;stroke-miterlimit:10;stroke-dasharray:none;stroke-opacity:1"
               d="m -28.3468,-148.82082 21.2601,-17.00807 14.17339,0 21.2601,17.00807" /></g><g
             id="g4310"><path
               id="path4312"
               style="fill:none;stroke:#8a8a8a;stroke-width:0.3985;stroke-linecap:butt;stroke-linejoin:miter;stroke-miterlimit:10;stroke-dasharray:none;stroke-opacity:1"
               d="m -28.3468,-148.82082 20.47835,-16.38266 c 0.43175,-0.34541 1.22779,-0.62541 1.77803,-0.62541 l 12.18083,0 c 0.55023,0 1.34628,0.28 1.77803,0.62541 l 20.47835,16.38266" /></g><g
             id="g4314"><path
               id="path4316"
               style="fill:none;stroke:#404040;stroke-width:0.3985;stroke-linecap:butt;stroke-linejoin:miter;stroke-miterlimit:10;stroke-dasharray:none;stroke-opacity:1"
               d="m -39.68553,-51.02426 0,-50.028 c 0,-0.55024 0.31541,-1.31168 0.70447,-1.70074 l 4.2604,-4.26041 c 0.38907,-0.38906 1.15052,-0.70447 1.70075,-0.70447 l 66.03981,0 c 0.55023,0 1.31167,0.31541 1.70074,0.70447 l 4.26041,4.26041 c 0.38905,0.38906 0.70447,1.1505 0.70447,1.70074 l 0,50.028" /></g><g
             id="g4318"><path
               id="path4320"
               style="fill:none;stroke:#4c4c4c;stroke-width:0.79701;stroke-linecap:butt;stroke-linejoin:miter;stroke-miterlimit:10;stroke-dasharray:none;stroke-opacity:1"
               d="m -79.3711,0.99628 0,88.71727 c 0,0.55023 0.44605,0.99627 0.99628,0.99627 l 156.74964,0 c 0.55023,0 0.99628,-0.44604 0.99628,-0.99627 l 0,-88.71727 c 0,-0.55025 -0.21714,-1.3871 -0.48499,-1.86922 L 51.50925,-50.15132 c -0.26784,-0.48212 -0.93102,-0.87294 -1.48125,-0.87294 l -100.05598,0 c -0.55024,0 -1.21342,0.39082 -1.48125,0.87294 l -27.37688,49.27838 c -0.26785,0.48212 -0.48499,1.31897 -0.48499,1.86922 z" /></g><g
             id="g4322"><path
               id="path4324"
               style="fill:none;stroke:#dc8d8d;stroke-width:0.79701;stroke-linecap:butt;stroke-linejoin:miter;stroke-miterlimit:10;stroke-dasharray:none;stroke-opacity:1"
               d="m -79.3711,97.37546 0,37.69299 c 0,0.55023 0.44587,1.01219 0.99586,1.03182 78.37524,2.79911 78.37524,2.79911 156.75048,0 0.54999,-0.0196 0.99586,-0.48159 0.99586,-1.03182 l 0,-37.69299 c 0,-0.55023 -0.44605,-0.99628 -0.99628,-0.99628 l -156.74964,0 c -0.55023,0 -0.99628,0.44605 -0.99628,0.99628 z" /></g></g></g></g></g></svg>